<mxfile host="app.diagrams.net" agent="Mozilla/5.0 (Windows NT 10.0; Win64; x64) AppleWebKit/537.36 (KHTML, like Gecko) Chrome/135.0.0.0 Safari/537.36" version="26.1.2">
  <diagram name="Página-1" id="2duuz43gHOPAHNS1qgN-">
    <mxGraphModel dx="819" dy="441" grid="1" gridSize="10" guides="1" tooltips="1" connect="1" arrows="1" fold="1" page="1" pageScale="1" pageWidth="827" pageHeight="1169" math="0" shadow="0">
      <root>
        <mxCell id="0" />
        <mxCell id="1" parent="0" />
        <mxCell id="qaH1dg18ehNUrj-V564R-1" value="UML (Unified Modeling Language)&lt;div&gt;DC (Diagrama de Classes)&lt;/div&gt;" style="text;html=1;align=center;verticalAlign=middle;whiteSpace=wrap;rounded=0;" vertex="1" parent="1">
          <mxGeometry x="314" y="60" width="200" height="30" as="geometry" />
        </mxCell>
        <mxCell id="qaH1dg18ehNUrj-V564R-2" value="Projeto: Eleições" style="text;html=1;align=center;verticalAlign=middle;whiteSpace=wrap;rounded=0;fontStyle=1" vertex="1" parent="1">
          <mxGeometry x="314" y="20" width="200" height="30" as="geometry" />
        </mxCell>
        <mxCell id="qaH1dg18ehNUrj-V564R-3" value="Candidato" style="swimlane;fontStyle=1;align=center;verticalAlign=top;childLayout=stackLayout;horizontal=1;startSize=26;horizontalStack=0;resizeParent=1;resizeParentMax=0;resizeLast=0;collapsible=1;marginBottom=0;whiteSpace=wrap;html=1;fillColor=#ffe6cc;strokeColor=#d79b00;" vertex="1" parent="1">
          <mxGeometry x="200" y="120" width="160" height="98" as="geometry" />
        </mxCell>
        <mxCell id="qaH1dg18ehNUrj-V564R-4" value="+ id: int;&lt;div&gt;+ nome: String;&lt;/div&gt;&lt;div&gt;+ votos: int;&lt;/div&gt;&lt;div&gt;+ porcentagem: double?;&lt;/div&gt;" style="text;strokeColor=none;fillColor=none;align=left;verticalAlign=top;spacingLeft=4;spacingRight=4;overflow=hidden;rotatable=0;points=[[0,0.5],[1,0.5]];portConstraint=eastwest;whiteSpace=wrap;html=1;" vertex="1" parent="qaH1dg18ehNUrj-V564R-3">
          <mxGeometry y="26" width="160" height="64" as="geometry" />
        </mxCell>
        <mxCell id="qaH1dg18ehNUrj-V564R-5" value="" style="line;strokeWidth=1;fillColor=none;align=left;verticalAlign=middle;spacingTop=-1;spacingLeft=3;spacingRight=3;rotatable=0;labelPosition=right;points=[];portConstraint=eastwest;strokeColor=inherit;" vertex="1" parent="qaH1dg18ehNUrj-V564R-3">
          <mxGeometry y="90" width="160" height="8" as="geometry" />
        </mxCell>
        <mxCell id="qaH1dg18ehNUrj-V564R-7" value="Eleicao" style="swimlane;fontStyle=1;align=center;verticalAlign=top;childLayout=stackLayout;horizontal=1;startSize=26;horizontalStack=0;resizeParent=1;resizeParentMax=0;resizeLast=0;collapsible=1;marginBottom=0;whiteSpace=wrap;html=1;fillColor=#ffe6cc;strokeColor=#d79b00;" vertex="1" parent="1">
          <mxGeometry x="450" y="120" width="170" height="160" as="geometry" />
        </mxCell>
        <mxCell id="qaH1dg18ehNUrj-V564R-8" value="+ id: int;&lt;div&gt;+ nome: String;&lt;/div&gt;&lt;div&gt;+ candidatos: Candidato[];&lt;/div&gt;" style="text;strokeColor=none;fillColor=none;align=left;verticalAlign=top;spacingLeft=4;spacingRight=4;overflow=hidden;rotatable=0;points=[[0,0.5],[1,0.5]];portConstraint=eastwest;whiteSpace=wrap;html=1;" vertex="1" parent="qaH1dg18ehNUrj-V564R-7">
          <mxGeometry y="26" width="170" height="54" as="geometry" />
        </mxCell>
        <mxCell id="qaH1dg18ehNUrj-V564R-9" value="" style="line;strokeWidth=1;fillColor=none;align=left;verticalAlign=middle;spacingTop=-1;spacingLeft=3;spacingRight=3;rotatable=0;labelPosition=right;points=[];portConstraint=eastwest;strokeColor=inherit;" vertex="1" parent="qaH1dg18ehNUrj-V564R-7">
          <mxGeometry y="80" width="170" height="8" as="geometry" />
        </mxCell>
        <mxCell id="qaH1dg18ehNUrj-V564R-10" value="+ votosTotal(): int;&lt;div&gt;+ calcularPorcentagem();&lt;/div&gt;&lt;div&gt;+ addCandidato(Candidato);&lt;/div&gt;&lt;div&gt;+ removeCandidato(int);&lt;/div&gt;" style="text;strokeColor=none;fillColor=none;align=left;verticalAlign=top;spacingLeft=4;spacingRight=4;overflow=hidden;rotatable=0;points=[[0,0.5],[1,0.5]];portConstraint=eastwest;whiteSpace=wrap;html=1;" vertex="1" parent="qaH1dg18ehNUrj-V564R-7">
          <mxGeometry y="88" width="170" height="72" as="geometry" />
        </mxCell>
        <mxCell id="qaH1dg18ehNUrj-V564R-11" value="1..*" style="endArrow=diamondThin;endFill=1;endSize=24;html=1;rounded=0;exitX=0;exitY=0.5;exitDx=0;exitDy=0;" edge="1" parent="1" source="qaH1dg18ehNUrj-V564R-8" target="qaH1dg18ehNUrj-V564R-4">
          <mxGeometry width="160" relative="1" as="geometry">
            <mxPoint x="400" y="250" as="sourcePoint" />
            <mxPoint x="380" y="250" as="targetPoint" />
          </mxGeometry>
        </mxCell>
      </root>
    </mxGraphModel>
  </diagram>
</mxfile>
